<svg height="512pt" viewBox="0 -67 512 512" width="512pt" xmlns="http://www.w3.org/2000/svg"><g fill-rule="evenodd"><path d="m58.367188 276.558594h395.265624l13.089844-181.378906c-3.820312-.257813-7.441406-1.167969-10.777344-2.621094-8.871093 13.101562-20.960937 23.53125-34.851562 31.105468-52.644531 28.714844-130.984375 16.210938-156.738281-48.882812-2.453125.597656-5.019531.910156-7.671875.910156-3.078125 0-6.074219-.425781-8.925782-1.222656-7.644531 19.484375-19.992187 34.269531-34.933593 44.695312-48.425781 33.703126-124.257813 21.425782-156.796875-26.605468-3.335938 1.453125-6.957032 2.363281-10.75 2.621094zm0 0" fill="#ffd89e"/><path d="m227.652344 189.699219c0 25.097656 12.691406 45.464843 28.347656 45.464843s28.320312-20.367187 28.320312-45.464843c0-25.097657-12.664062-45.4375-28.320312-45.4375s-28.347656 20.339843-28.347656 45.4375zm0 0" fill="#ff6977"/><path d="m453.632812 276.558594h-402.792968c-12.464844 0-22.644532 10.167968-22.644532 22.589844 0 12.449218 10.179688 22.617187 22.644532 22.617187h410.320312c12.4375 0 22.617188-10.167969 22.617188-22.617187 0-12.421876-10.179688-22.589844-22.617188-22.589844zm0 0" fill="#e8e7e9"/><path d="m461.160156 321.765625h-428.488281c-12.433594 0-22.585937 10.171875-22.585937 22.5625 0 12.421875 10.152343 22.589844 22.585937 22.589844h446.65625c12.40625 0 22.585937-10.167969 22.585937-22.589844 0-12.390625-10.179687-22.5625-22.585937-22.5625zm0 0" fill="#ffc15a"/><path d="m264.355469 74.78125c14.429687-3.449219 25.152343-16.4375 25.152343-31.90625 0-18.117188-14.6875-32.789062-32.824218-32.789062-18.136719 0-32.824219 14.671874-32.824219 32.789062 0 15.039062 10.09375 27.6875 23.898437 31.59375 2.851563.796875 5.847657 1.222656 8.925782 1.222656 2.652344 0 5.21875-.3125 7.671875-.910156zm0 0" fill="#f6838d"/><path d="m56.027344 92.554688c11.609375-5.070313 19.734375-16.636719 19.734375-30.082032 0-18.117187-14.714844-32.789062-32.851563-32.789062-18.136718 0-32.824218 14.671875-32.824218 32.789062 0 18.117188 14.6875 32.789063 32.824218 32.789063.800782 0 1.597656-.027344 2.367188-.085938 3.792968-.253906 7.414062-1.167969 10.75-2.621093zm0 0" fill="#f6838d"/><path d="m120.164062 56.863281c0 12.417969 6.933594 23.246094 17.140626 28.800781 4.679687 2.535157 10.011718 3.988282 15.714843 3.988282 5.820313 0 11.265625-1.511719 16-4.160156 10.039063-5.613282 16.824219-16.324219 16.824219-28.628907 0-18.121093-14.6875-32.820312-32.824219-32.820312s-32.855469 14.699219-32.855469 32.820312zm0 0" fill="#ff6977"/><path d="m328.464844 61.363281c0 12.421875 6.902344 23.246094 17.113281 28.800781 4.675781 2.5625 10.035156 3.988282 15.710937 3.988282 5.820313 0 11.265626-1.511719 16-4.160156 10.039063-5.582032 16.828126-16.320313 16.828126-28.628907 0-18.117187-14.6875-32.816406-32.828126-32.816406-18.136718 0-32.824218 14.699219-32.824218 32.816406zm0 0" fill="#ff6977"/><path d="m212.824219 119.164062c-16.714844-7.007812-32.226563-19.058593-43.804688-33.671874-4.734375 2.648437-10.179687 4.160156-16 4.160156-5.703125 0-11.035156-1.453125-15.714843-3.988282-11.09375 15.070313-34.277344 30.792969-47.996094 37.117188 37.160156 21.082031 87.808594 21.222656 123.515625-3.617188zm0 0" fill="#ffc15a"/><path d="m345.578125 90.164062c-11.066406 15.070313-25.726563 27.089844-39.441406 33.414063 34.59375 20.027344 80.335937 18.972656 114.957031.085937-16.710938-6.980468-32.226562-19.058593-43.804688-33.671874-4.734374 2.648437-10.179687 4.160156-16 4.160156-5.675781 0-11.035156-1.425782-15.710937-3.988282zm0 0" fill="#ffc15a"/><path d="m436.238281 62.472656c0 13.449219 8.097657 25.011719 19.703125 30.085938 3.339844 1.453125 6.960938 2.363281 10.78125 2.621094.769532.054687 1.570313.082031 2.339844.082031 18.109375 0 32.765625-14.585938 32.851562-32.644531v-.285157c-.085937-18.0625-14.742187-32.648437-32.851562-32.648437s-32.824219 14.671875-32.824219 32.789062zm0 0" fill="#f6838d"/></g><path d="m490.464844 313.636719c2.171875-4.371094 3.398437-9.289063 3.398437-14.488281 0-16.90625-12.914062-30.851563-29.402343-32.507813l11.683593-161.886719c20.316407-3.382812 35.855469-21.050781 35.855469-42.28125 0-23.636718-19.261719-42.871094-42.9375-42.871094-23.660156 0-42.910156 19.230469-42.910156 42.871094 0 13.035156 5.859375 24.722656 15.078125 32.59375-5.886719 6.640625-12.933594 12.425782-20.796875 17.226563-10.351563-5.027344-20.164063-12.226563-28.542969-20.917969 7.605469-7.738281 12.308594-18.335938 12.308594-30.011719 0-23.65625-19.25-42.902343-42.910157-42.902343-23.65625 0-42.90625 19.246093-42.90625 42.902343 0 11.933594 4.910157 22.742188 12.8125 30.519531-7.371093 8.25-16.007812 15.339844-24.59375 20.140626-12.027343-8.003907-21.804687-18.78125-28.699218-31.882813 12.941406-7.398437 21.691406-21.324219 21.691406-37.269531 0-23.636719-19.25-42.871094-42.910156-42.871094s-42.910156 19.230469-42.910156 42.871094c0 15.511718 8.273437 29.121094 20.640624 36.660156-5.703124 11.039062-13.433593 20.449219-22.828124 27.976562-10.152344-5.035156-19.757813-12.128906-27.964844-20.636718 7.605468-7.738282 12.308594-18.335938 12.308594-30.011719 0-23.65625-19.25-42.898437-42.910157-42.898437-23.675781 0-42.9375 19.242187-42.9375 42.898437 0 11.820313 4.816407 22.539063 12.59375 30.304687-9.660156 9.722657-23.121093 18.835938-32.835937 24.070313-7.179688-4.582031-13.628906-10.003906-19.089844-16.164063 9.230469-7.867187 15.097656-19.558593 15.097656-32.597656 0-23.640625-19.261718-42.875-42.9375-42.875-23.660156.003906-42.910156 19.238282-42.910156 42.875 0 21.242188 15.542969 38.914063 35.855469 42.285156l11.683593 161.882813c-16.503906 1.65625-29.429687 15.601563-29.429687 32.507813 0 5.203124 1.230469 10.125 3.402344 14.496093-12.535157 4.566407-21.511719 16.597657-21.511719 30.683594 0 18.015625 14.65625 32.675781 32.671875 32.675781h446.65625c18.015625 0 32.671875-14.660156 32.671875-32.675781 0-14.09375-8.988281-26.128906-21.535156-30.691406zm-21.402344-273.867188c12.554688 0 22.765625 10.183594 22.765625 22.703125 0 12.519532-10.210937 22.707032-22.765625 22.707032-12.539062 0-22.742188-10.1875-22.742188-22.707032 0-12.519531 10.203126-22.703125 22.742188-22.703125zm-107.773438-1.140625c12.539063 0 22.742188 10.199219 22.742188 22.734375 0 12.519531-10.203125 22.707031-22.742188 22.707031-12.539062 0-22.738281-10.1875-22.738281-22.707031 0-12.535156 10.203125-22.734375 22.738281-22.734375zm-12.492187 63.746094c3.953125 1.207031 8.148437 1.859375 12.492187 1.859375 4.570313 0 8.972657-.722656 13.105469-2.050781 7.003907 7.78125 14.996094 14.679687 23.554688 20.390625-14.855469 4.832031-31.132813 6.675781-47.363281 4.898437-8.09375-.886718-15.773438-2.605468-22.964844-5.089844 7.601562-5.621093 14.824218-12.429687 21.175781-20.007812zm-114.851563-59.5c0-12.519531 10.199219-22.707031 22.738282-22.707031 12.539062 0 22.742187 10.1875 22.742187 22.707031 0 12.535156-10.203125 22.734375-22.742187 22.734375-12.539063 0-22.738282-10.199219-22.738282-22.734375zm-80.925781-8.746094c12.539063 0 22.738281 10.195313 22.738281 22.734375 0 12.519531-10.199218 22.703125-22.738281 22.703125-12.554687 0-22.769531-10.183594-22.769531-22.703125 0-12.539062 10.214844-22.734375 22.769531-22.734375zm-12.6875 63.691406c4.011719 1.242188 8.273438 1.914063 12.6875 1.914063 4.570313 0 8.972657-.722656 13.105469-2.054687 7.574219 8.410156 16.3125 15.796874 25.691406 21.773437-9.199218 4.066406-19.328125 6.785156-30.210937 7.996094-17.238281 1.921875-34.527344-.238281-50.125-5.730469 9.996093-6.566406 20.785156-15.015625 28.851562-23.898438zm-120.160156-35.347656c0-12.519531 10.199219-22.703125 22.738281-22.703125 12.554688 0 22.769532 10.183594 22.769532 22.703125 0 12.519532-10.214844 22.707032-22.769532 22.707032-12.539062 0-22.738281-10.1875-22.738281-22.707032zm30.667969 224.167969h159.644531c5.570313 0 10.085937-4.515625 10.085937-10.082031 0-5.570313-4.515624-10.085938-10.085937-10.085938h-142.734375l-11.339844-157.132812c11.21875 12.433594 25.648438 22.410156 42.386719 29.210937 20.449219 8.316407 42.945313 11.40625 65.042969 8.941407 20.078125-2.234376 38.886718-9.105469 54.453125-19.859376.039062-.027343.078125-.054687.117187-.082031.136719-.09375.28125-.183593.417969-.28125 15.234375-10.664062 26.988281-24.636719 35.046875-41.597656.929688.0625 1.863281.101563 2.808594.101563.492187 0 .976562-.019532 1.460937-.035157 8.101563 17.015625 19.925781 31.019531 35.25 41.691407 2.363281 1.644531 4.8125 3.1875 7.324219 4.652343.066406.042969.140625.078125.210938.121094 14.082031 8.171875 30.308593 13.433594 47.453124 15.316406 41.472657 4.546875 82.023438-10.238281 107.207032-38.207031l-11.339844 157.160156h-142.363281c-5.570313 0-10.085938 4.515625-10.085938 10.082032 0 5.570312 4.515625 10.085937 10.085938 10.085937h151.730469.027343.019531 7.496094c6.910156 0 12.53125 5.609375 12.53125 12.507813 0 6.910156-5.621094 12.535156-12.53125 12.535156h-410.320312c-6.925782 0-12.5625-5.625-12.5625-12.535156 0-6.898438 5.636718-12.507813 12.5625-12.507813zm428.488281 70.195313h-446.65625c-6.894531 0-12.503906-5.609376-12.503906-12.507813 0-6.878906 5.609375-12.480469 12.503906-12.480469h446.65625c6.894531 0 12.503906 5.601563 12.503906 12.480469-.003906 6.898437-5.609375 12.507813-12.503906 12.507813zm0 0"/><path d="m256 245.246094c21.535156 0 38.402344-24.398438 38.402344-55.546875 0-31.132813-16.867188-55.519531-38.402344-55.519531-21.550781 0-38.433594 24.386718-38.433594 55.519531 0 31.148437 16.882813 55.546875 38.433594 55.546875zm0-90.902344c8.605469 0 18.234375 15.121094 18.234375 35.355469 0 20.25-9.628906 35.382812-18.234375 35.382812-8.621094 0-18.261719-15.132812-18.261719-35.382812 0-20.234375 9.640625-35.355469 18.261719-35.355469zm0 0"/><path d="m256.199219 266.472656h-.199219c-5.570312 0-10.085938 4.515625-10.085938 10.082032 0 5.570312 4.515626 10.085937 10.085938 10.085937h.199219c5.570312 0 10.085937-4.515625 10.085937-10.085937 0-5.566407-4.515625-10.082032-10.085937-10.082032zm0 0"/></svg>