<svg id="Capa_1" enable-background="new 0 0 512 512" height="512" viewBox="0 0 512 512" width="512" xmlns="http://www.w3.org/2000/svg"><g><g><path d="m502 259.506v178.09c0 35.569-28.835 64.404-64.404 64.404h-363.192c-35.569 0-64.404-28.835-64.404-64.404v-363.192c0-35.569 28.835-64.404 64.404-64.404h363.191c35.57 0 64.405 28.835 64.405 64.404v94.689" fill="#e8d0c1"/><g><g><path d="m256 70h186v372h-372v-372h129.638" fill="#faf7f5"/></g><g><path d="m382 235.766v146.234h-252v-252h252v66.447" fill="#a0e5a5"/></g><path d="m190 221.468v-31.468h132v132h-132v-40.787" fill="#b8ecbc"/></g></g><g><path d="m502 224.12c-4.197 0-7.978-2.714-9.407-6.636-1.426-3.913-.162-8.466 3.063-11.101 3.284-2.683 8.016-2.987 11.621-.759 3.569 2.206 5.405 6.586 4.478 10.677-1.021 4.501-5.125 7.819-9.755 7.819z"/><path d="m502 179.094c5.522 0 10-4.478 10-10v-94.69c0-41.026-33.378-74.404-74.404-74.404h-363.192c-41.026 0-74.404 33.378-74.404 74.404v363.191c0 41.027 33.378 74.405 74.404 74.405h363.191c41.027 0 74.405-33.378 74.405-74.404v-178.09c0-5.522-4.478-10-10-10s-10 4.478-10 10v61.538h-40v-251.044c0-5.522-4.478-10-10-10h-176v-40h171.596c29.999 0 54.404 24.405 54.404 54.404v94.689c0 5.523 4.478 10.001 10 10.001zm-10 161.95v96.552c0 29.999-24.405 54.404-54.404 54.404h-107.957v-47.383c0-.444-.029-.88-.085-1.309.056-.428.085-.865.085-1.309 0-5.522-4.478-10-10-10h-239.639v-99.999h40v50c0 5.522 4.478 10 10 10h252c5.522 0 10-4.478 10-10v-146.234c0-5.522-4.478-10-10-10s-10 4.478-10 10v136.234h-106v-40h56c5.522 0 10-4.478 10-10v-132c0-5.522-4.478-10-10-10h-132c-5.522 0-10 4.478-10 10v21.468h-40v-71.468h232v56.447c0 5.522 4.478 10 10 10h50v225.553h-53c-5.522 0-10 4.478-10 10s4.478 10 10 10h63c5.522 0 10-4.478 10-10v-100.956zm-302-109.576c5.522 0 10-4.478 10-10v-21.468h112v112h-112v-30.787c0-5.522-4.478-10-10-10s-10 4.478-10 10v40.787c0 5.522 4.478 10 10 10h56v40h-106v-140.532zm66-151.468h176v106.447h-40v-56.447c0-5.522-4.478-10-10-10h-252c-5.522 0-10 4.478-10 10v182h-40v-232h119.639c5.522 0 10-4.478 10-10s-4.478-10-10-10h-129.639c-5.522 0-10 4.478-10 10v372c0 5.522 4.478 10 10 10h239.639v40h-235.235c-29.999 0-54.404-24.405-54.404-54.404v-363.192c0-29.999 24.405-54.404 54.404-54.404h171.596v50c0 5.522 4.478 10 10 10z"/></g></g></svg>